<svg width="16" height="16" viewBox="0 0 16 16" fill="none" xmlns="http://www.w3.org/2000/svg">
<path d="M15.1111 7.82222C14.5778 7.82222 14.2222 8.17778 14.2222 8.71111V13.6889C14.2222 13.9556 13.9556 14.2222 13.6889 14.2222H2.31111C2.04444 14.2222 1.77778 13.9556 1.77778 13.6889V2.31111C1.77778 2.04444 2.04444 1.77778 2.31111 1.77778H10.8444C11.3778 1.77778 11.7333 1.42222 11.7333 0.888889C11.7333 0.355556 11.3778 0 10.8444 0H2.31111C1.06667 0 0 1.06667 0 2.31111V13.6889C0 14.9333 1.06667 16 2.31111 16H13.6889C14.9333 16 16 14.9333 16 13.6889V8.71111C16 8.26667 15.6444 7.82222 15.1111 7.82222Z" fill="#D3590B"/>
<path d="M6.84435 7.11113C6.48879 6.75558 5.95546 6.84447 5.5999 7.20002C5.33324 7.46669 5.33324 8.00002 5.5999 8.35558L7.55546 10.4C7.73324 10.5778 7.91101 10.6667 8.17768 10.6667C8.44435 10.6667 8.62212 10.5778 8.7999 10.4L14.8443 4.1778C15.1999 3.82224 15.1999 3.28891 14.8443 2.93335C14.4888 2.5778 13.9555 2.5778 13.5999 2.93335L8.17768 8.53335L6.84435 7.11113Z" fill="#D3590B"/>
</svg>
