<svg width="24" height="24" viewBox="0 0 24 24" fill="none" xmlns="http://www.w3.org/2000/svg">
<path d="M9.25 0H1.75C0.785 0 0 0.785 0 1.75V6.25C0 7.215 0.785 8 1.75 8H9.25C10.215 8 11 7.215 11 6.25V1.75C11 0.785 10.215 0 9.25 0Z" fill="#D3590B"/>
<path d="M9.25 10H1.75C0.785 10 0 10.785 0 11.75V22.25C0 23.215 0.785 24 1.75 24H9.25C10.215 24 11 23.215 11 22.25V11.75C11 10.785 10.215 10 9.25 10Z" fill="#D3590B"/>
<path d="M22.25 16H14.75C13.785 16 13 16.785 13 17.75V22.25C13 23.215 13.785 24 14.75 24H22.25C23.215 24 24 23.215 24 22.25V17.75C24 16.785 23.215 16 22.25 16Z" fill="#D3590B"/>
<path d="M22.25 0H14.75C13.785 0 13 0.785 13 1.75V12.25C13 13.215 13.785 14 14.75 14H22.25C23.215 14 24 13.215 24 12.25V1.75C24 0.785 23.215 0 22.25 0Z" fill="#D3590B"/>
</svg>
