<svg width="18" height="14" viewBox="0 0 18 14" fill="none" xmlns="http://www.w3.org/2000/svg">
<path d="M16.4971 5.64062C17.0331 5.64062 17.5164 5.90382 17.79 6.34473C18.0449 6.75685 18.069 7.26147 17.8535 7.69434L15.125 13.1641C14.8825 13.6499 14.3858 13.957 13.8428 13.957H1.1416C0.602432 13.9569 0.149455 13.595 0.0302734 13.1104L3.18848 6.49023C3.43007 5.97383 3.96788 5.64063 4.55957 5.64062H16.4971ZM5.37891 0C5.74544 0 6.08907 0.173054 6.29688 0.463867L7.46973 2.10449C7.4722 2.10628 7.47964 2.10938 7.48926 2.10938H14.0439C14.6582 2.10956 15.158 2.59114 15.1582 3.18359V4.62207H3.91699C3.3251 4.62207 2.78621 4.95532 2.54492 5.47168L0 10.8086V1.07422C0.000182135 0.481809 0.499768 0.000251775 1.11426 0H5.37891Z" fill="#D3590B"/>
</svg>
