<svg width="29" height="23" viewBox="0 0 29 23" fill="none" xmlns="http://www.w3.org/2000/svg">
<path d="M26.5791 9.08691C27.4428 9.08698 28.2214 9.51204 28.6621 10.2227C29.0726 10.8866 29.1117 11.6992 28.7646 12.3965L24.3672 21.209C23.9765 21.9918 23.1766 22.4873 22.3018 22.4873H1.83984C0.970986 22.4873 0.240875 21.9031 0.0488281 21.1221L5.13672 10.4561C5.52599 9.62428 6.3926 9.08699 7.3457 9.08691H26.5791ZM8.66699 0C9.25766 6.22332e-05 9.81079 0.279265 10.1455 0.748047L12.0352 3.39062C12.0391 3.3935 12.05 3.39843 12.0654 3.39844H22.626C23.616 3.39852 24.4219 4.17503 24.4219 5.12988V7.44629H6.31055C5.35695 7.44629 4.48933 7.9845 4.10059 8.81641L0 17.4141V1.73145C2.66478e-05 0.776583 0.805427 6.71615e-05 1.7959 0H8.66699Z" fill="white"/>
</svg>
