<svg width="15" height="15" viewBox="0 0 15 15" fill="none" xmlns="http://www.w3.org/2000/svg">
<path d="M12.0311 0H2.97479C1.33353 0 0.00293083 1.3359 0 2.98009V9.97376C0.00293083 11.6179 1.33353 12.9538 2.97479 12.9538H5.44255L7.06037 14.8006C7.27432 15.0443 7.64361 15.0678 7.88687 14.8535C7.90445 14.8359 7.92204 14.8212 7.93962 14.8006L9.55744 12.9538H12.0252C13.6694 12.9538 15 11.6179 15 9.97376V2.98009C15.0029 1.33297 13.6723 0 12.0311 0ZM11.1723 9.90329H3.83353C3.51114 9.90329 3.24736 9.63905 3.24736 9.31608C3.24736 8.99312 3.51114 8.72887 3.83353 8.72887H11.1723C11.4947 8.72887 11.7585 8.99312 11.7585 9.31608C11.7585 9.63905 11.4947 9.90329 11.1723 9.90329ZM11.1723 7.02597H3.83353C3.51114 7.02597 3.24736 6.76172 3.24736 6.43876C3.24736 6.11579 3.51114 5.85155 3.83353 5.85155H11.1723C11.4947 5.85155 11.7585 6.11579 11.7585 6.43876C11.7585 6.76172 11.4947 7.02597 11.1723 7.02597ZM11.1723 4.14864H3.83353C3.51114 4.14864 3.24736 3.88439 3.24736 3.56143C3.24736 3.23846 3.51114 2.97422 3.83353 2.97422H11.1723C11.4947 2.97422 11.7585 3.23846 11.7585 3.56143C11.7585 3.88439 11.4947 4.14864 11.1723 4.14864Z" fill="#6B7280"/>
</svg>
