<svg width="13" height="13" viewBox="0 0 13 13" fill="none" xmlns="http://www.w3.org/2000/svg">
<path d="M5.49523 0.383222C5.73525 -0.127733 6.46202 -0.127733 6.70204 0.383222L8.23366 3.64371C8.29975 3.78441 8.41292 3.89758 8.55361 3.96367L11.8141 5.49529C12.3251 5.73531 12.3251 6.46208 11.8141 6.7021L8.55361 8.23372C8.41292 8.29981 8.29975 8.41298 8.23366 8.55367L6.70204 11.8142C6.46202 12.3251 5.73525 12.3251 5.49523 11.8142L3.96361 8.55367C3.89752 8.41298 3.78434 8.29981 3.64365 8.23372L0.383161 6.7021C-0.127794 6.46208 -0.127794 5.73531 0.383161 5.49529L3.64365 3.96367C3.78434 3.89758 3.89752 3.78441 3.96361 3.64371L5.49523 0.383222Z" fill="white"/>
</svg>
