<svg width="15" height="4" viewBox="0 0 15 4" fill="none" xmlns="http://www.w3.org/2000/svg">
<path d="M1.78613 0C2.77216 0.00022616 3.57129 0.80005 3.57129 1.78613C3.57106 2.77202 2.77202 3.57106 1.78613 3.57129C0.80005 3.57129 0.00022616 2.77216 0 1.78613C0 0.79991 0.79991 0 1.78613 0ZM7.5 0C8.48622 0 9.28613 0.79991 9.28613 1.78613C9.28594 2.77219 8.4861 3.57129 7.5 3.57129C6.5139 3.57129 5.71407 2.77219 5.71387 1.78613C5.71387 0.79991 6.51378 6.44247e-08 7.5 0ZM13.2139 0C14.2001 0 15 0.79991 15 1.78613C14.9998 2.77219 14.2 3.57129 13.2139 3.57129C12.228 3.57106 11.4289 2.77205 11.4287 1.78613C11.4287 0.80005 12.2278 0.000226282 13.2139 0Z" fill="#D3590B"/>
</svg>
